<svg version="1.2" xmlns="http://www.w3.org/2000/svg" viewBox="0 0 1024 1024" width="1024" height="1024">
	<title>nominsis-svg</title>
	<style>
		.s0 { fill: #ffffff }
	</style>
	<g id="Layer">
		<path id="Layer" fill-rule="evenodd" class="s0" d="m-1102 69h1024v1024h-1024zm1668.5 97.6c25.7 4 56.9 12.2 77.7 20.5 34.4 13.6 73.2 36.8 99.5 59.3 44.7 38.4 77.1 82.8 96 131.6 11 28.6 16.3 51 21.8 92.3l0.5 3.8-3.3-2.5c-1.8-1.4-5.9-3.7-9-5.1-3.1-1.5-5.7-2.9-5.7-3.2 0-0.2-0.9-6.6-2.1-14.1-11.8-77.7-53-146.8-117.4-196.9-38.3-29.7-78.3-49.1-126.3-61.2-10.1-2.6-33.2-7.1-36.2-7.1-0.4 0-1.5-2-2.5-4.5-0.9-2.5-3.4-6.8-5.6-9.5-2.1-2.7-3.9-5.1-3.9-5.3 0-0.5 4 0 16.5 1.9zm-90.5-1c0 0.4-1.4 2.2-3.1 4.2-1.8 2-4.3 6-5.6 8.9-1.4 2.9-2.6 5.3-2.7 5.3-4.8 0-44.7 9.1-55.4 12.6-42.8 14.1-76.4 31.6-108.4 56.5-48.9 38.1-86.7 91.5-104.3 147.4-6.7 21.2-13.5 51.8-13.5 60.4 0 2.3-0.8 3-5.4 5-2.9 1.2-6.8 3.3-8.7 4.7-2.1 1.5-3.5 2-3.8 1.3-1-3 4.4-35.4 8.9-52.9 5.3-20.7 16-50.1 24.6-67.3 24.9-49.7 64.1-94.3 110.4-125.6 36.2-24.5 74.6-41.8 115.2-52.1 23-5.8 51.8-10.4 51.8-8.4zm27 38.7c0 24.6-0.3 33.6-1.2 34.5-0.8 0.8-4.6 1.2-10.4 1.2h-9.2l-0.7-17.3c-1.1-26.2 0.5-35 7.7-43.2 3.8-4.3 9.8-8.4 12.6-8.5 0.9 0 1.2 7.3 1.2 33.3zm25.9-31.3c5 2.5 12.3 10.7 14 15.6 1.6 4.7 2.6 31.1 1.6 43l-0.7 8.4h-9.2c-5.8 0-9.6-0.4-10.4-1.2-1.6-1.6-1.7-67.8-0.2-67.8 0.6 0 2.8 0.9 4.9 2zm-63.9 30.6c0.6 1.4 1 10.4 1 19.9 0 19.6 0.8 17.8-7.8 18.8-4.1 0.5-4.8-0.6-6.3-10.4-0.7-4.1-1.5-7.7-1.8-8.1-0.3-0.3-6.4 0.9-13.6 2.7-17.8 4.6-17.6 4.5-17.1 6.4 1.1 3.8 3.5 13.8 3.8 16 0.3 2.1-0.4 2.6-6.5 4.7-5 1.7-6.9 2-7.2 1.1-0.3-0.7-1.8-4.8-3.4-9.2-2.4-6.4-3.3-7.9-4.8-7.7-2.7 0.6-17.7 6.3-18.7 7.3-0.5 0.4-0.1 2.6 0.9 5.1 1 2.4 2.6 6.4 3.6 8.9l1.8 4.6-5.6 3.1c-3 1.8-6.1 3.2-6.8 3.2-0.7 0-2.9-3-4.8-6.8-6.1-11.4-4.7-11.1-16.6-4-5.7 3.5-10.8 7-11.4 7.9-0.8 1.3 0.1 3.1 4.1 8.5 2.9 3.7 5.2 7.4 5.2 8 0 1.5-8.8 9.4-10.4 9.4-1.4 0-6.7-5.5-11.5-11.8l-3.3-4.2-3.9 3c-2.1 1.7-6 5.1-8.6 7.4l-4.7 4.3 6.2 7.2c3.4 4 6.2 7.5 6.2 7.9-0.1 1.4-8.9 10.4-9.9 10.1-0.6-0.2-4.2-3.6-8.2-7.4l-7.1-7-7 7.5c-11.3 12.2-11 11.3-4.7 16.8 2.9 2.6 6.7 5.9 8.3 7.3l3 2.7-3.9 4.8c-2.1 2.7-4.2 5.3-4.6 5.8-0.4 0.5-4.6-1.9-9.2-5.3-4.7-3.3-8.9-6.1-9.5-6.1-0.9 0-12.2 16.4-12.2 17.8 0 0.5 3.8 3.4 8.5 6.6 4.7 3.2 8.5 6.1 8.5 6.4 0 1.6-6.6 11.2-7.7 11.2-0.7 0-4.5-2.1-8.4-4.6-4-2.5-7.7-4.8-8.4-5-1.6-0.7-4.6 4.6-9.9 17-6.8 16.1-7.1 14.7 3.5 19.1 5 2.1 9.3 4.5 9.6 5.2 0.5 1.3-1.7 8.3-3.6 11.2-0.7 1.1-2.6 0.8-10.6-1.9-7.7-2.6-9.9-3-10.5-1.9-1 1.5-4.6 16.4-5.6 22.5l-0.6 4.1 4.1 0.7c2.3 0.3 6.4 1.1 9.2 1.7l5.1 1.1-0.7 6.2c-0.3 3.3-1 6.4-1.4 6.9-1.2 1.2-37.3 0.9-38.1-0.3-0.4-0.6-0.1-5.2 0.7-10.3 7-48.3 27.9-95.4 59.9-135.7 8.8-11 35.5-37.7 46.3-46.3 22.2-17.5 50.3-34 75.1-44 24.9-10.1 61.6-20.4 80.3-22.6 0.4-0.1 1.2 1.1 1.7 2.5zm111.8-0.1c26.3 4.6 64.5 17.6 87.7 29.9 44 23.2 81.2 54.5 108.7 91.6 24.7 33.3 43 74.9 50.7 115.3 2.7 13.8 2.8 20.7 0.4 20.8-1 0-9.6 0.2-19.1 0.4l-17.3 0.3-0.9-2.4c-0.5-1.3-1.2-4.6-1.6-7.3l-0.6-5 3.8-1c2.2-0.5 6.5-1.3 9.7-1.6 5.4-0.7 5.7-0.9 5.7-3.5 0-1.5-0.4-4-0.9-5.6-0.5-1.6-1.9-6.6-3.1-11.2-1.3-4.5-2.8-8.2-3.4-8.2-0.6 0-4.6 1.1-8.9 2.5-11 3.5-11.2 3.5-13.7-3.2-2.6-6.9-2.6-6.9 9.3-11.4 7.7-2.9 8.7-3.5 8.1-5.3-0.9-3.2-12.6-29.6-13.3-30-0.3-0.2-4.3 1.8-8.9 4.5-4.5 2.7-8.9 4.9-9.6 4.9-0.7 0-2.7-2.7-4.5-5.9l-3.1-5.9 6.9-4.9c3.8-2.6 7.7-5.3 8.8-5.9 1.7-1 1.3-1.8-4-9.7-3.2-4.8-6.2-8.9-6.7-9.2-0.5-0.3-4 1.6-7.7 4.3-9 6.5-11.6 7.8-12.1 6.3-0.2-0.7-2-3.3-3.9-5.8-4-5.3-4.2-4.9 6.2-13.6 3.3-2.8 6-5.4 6-5.9 0-1.3-14.6-17.8-15.8-17.8-0.5 0-4.3 3.1-8.3 7-4.1 3.8-7.8 7-8.2 7-1.1 0-9.2-9.5-9.2-10.7 0-0.4 2.7-4 6-7.8 3.3-3.9 6-7.3 6-7.7 0-0.9-14.6-12.8-15.8-12.8-0.6 0-3.4 2.8-6.2 6.2-2.8 3.5-6.1 7-7.3 8-2.1 1.6-2.4 1.4-7.5-3.1l-5.4-4.6 5.7-7.9c3.1-4.3 5.4-8.4 5.1-9.1-0.5-1.3-15.9-11.1-20.7-13.2-2.6-1.1-2.8-1-7 6.9-2.4 4.4-4.9 8.2-5.5 8.5-0.9 0.3-8.5-3.6-12.2-6.3-0.2-0.1 1.2-4.2 3.2-9 1.9-4.8 3.3-9.1 3-9.5-0.3-0.6-20.7-8.9-21.8-8.9-0.2 0-0.9 1.9-1.6 4.2-0.7 2.4-2.1 6.6-3.1 9.4l-2 5.2-6.4-2.1c-7.6-2.5-7.7-2.8-4.6-14.7 1.1-4.1 1.9-7.5 1.8-7.6-1.8-1.3-25.9-7.4-29.3-7.4-1.9 0-2.2 0.8-2.8 6.5-0.4 3.6-1.1 7.7-1.7 9.1-0.9 2.6-1.2 2.6-6.6 2-3.1-0.4-5.8-0.8-6-0.9-0.5-0.5-0.6-5.9-0.4-22.5l0.1-16.2h3.8c2 0 7.4 0.7 12 1.5zm-37 57.5c56 6.1 110.4 30.7 151.1 68.6 11.2 10.3 25.3 27.3 35.3 42.3 10.7 16.2 23 40.6 23.2 45.9 0.1 3.5-0.1 3.7-5.6 5.9-11.7 4.7-10.3 5.7-19.5-12.9-13.4-26.9-26.7-45.2-46.9-64.8-37.6-36.5-88.1-59.6-142.3-65-5.7-0.5-9.8-1.4-10.2-2.2-0.5-0.7-0.9-4.4-0.9-8.2 0-5.1 0.4-7.4 1.7-8.8 1.9-2.1 1.6-2.1 14.1-0.8zm-39 1.2c1.8 1.8 1.6 15.2-0.3 16.8-0.8 0.7-5.7 1.7-10.8 2.2-37.5 3.6-77.1 17.7-108.2 38.4-42.5 28.2-75.1 71.4-90.9 120.3-5.8 17.7-10.6 43.2-10.6 55.6 0 2.2-0.5 4.6-1.2 5.3-1.6 1.6-18.4 1.6-19.4 0.1-2.1-3.4 1.5-33.7 6-50.9 11.5-44 32.9-81.8 64.5-114.4 37.9-38.8 83.9-62.5 141-72.6 12.4-2.2 28.1-2.6 29.9-0.8zm18.1 46.4c1.8 2.3 2.1 4.1 2.1 11.9v9.3l5 1.2c10.8 2.6 26 16.3 26 23.3 0 1.8-9.2 7.7-11.9 7.7-1 0-3.7-2.2-6-5-7.3-8.7-15.5-12.1-24.1-10-9.5 2.3-14.5 11.2-10.6 18.8 2.4 4.6 5.6 6.8 19.8 13.6 16 7.7 24 14.3 28.5 23.4 2.4 5 2.8 6.8 2.8 14.7-0.1 7-0.5 10-2.2 13.7-2.8 6.1-6.8 11.2-11.6 14.5l-3.8 2.6 11.6 11.7c6.3 6.4 11.5 12.1 11.5 12.6 0 1.5-9.1 11.4-10.5 11.4-0.7 0-13.3-12.3-28-27.2l-26.7-27.2 12.6-11.6 8.1 8c4.4 4.4 8.6 8 9.2 8 2 0 9.3-9.1 10.5-13.1 1.5-5.3-0.2-10.9-5.3-16.3-2.9-3.2-7.6-6.1-18.3-11.4-22.2-10.9-27.6-17-28.4-31.8-0.4-7.5-0.2-8.9 2.2-13.8 3.4-7 10.2-13 17.6-15.7l5.8-2.1 0.4-9.8c0.4-11.6 1.7-14 7.9-14 2.9 0 4.2 0.6 5.8 2.6zm-131.1 48.2c4.1 2.1 24.4 21.8 94 91.1 48.8 48.6 96.7 96.3 106.5 106l17.7 17.6v-200.5h-32.9l-2-2.6c-2.6-3.3-2.7-7-0.1-11.2l2-3.2h92.1l2.4 2.5c4 3.9 2.8 12.6-1.9 14.2-1.2 0.3-8.1 0.5-15.3 0.4l-13.3-0.3v259.7l2.4 5.2c1.7 3.5 3.5 5.7 5.7 6.9 4.2 2.1 10.1 2.2 13.3 0 3.5-2.3 6.3-2 9.1 0.9 2.9 2.8 3.3 7.9 0.9 11.3-3.6 5.2-13.9 7.3-22.7 4.8-5.2-1.5-8-4.2-94.3-90.3-48.9-48.9-98.3-98-109.7-109.3l-20.7-20.5v204h16.6c16.2 0 16.6 0.1 18.5 2.4 2.6 3.1 2.5 9.1-0.2 12.5l-2 2.6h-45.8c-50.7 0-49.1 0.2-51-6.6-1.3-4.7 0.3-9.2 3.8-10.5 1.4-0.6 8.4-0.9 15.6-0.8l13 0.2 0.3-126.9c0.2-90.2 0-128.4-0.8-132.1-0.8-3.6-2.3-6.4-4.8-9.3-4.7-5.3-9.2-6.2-15.5-3.1-2.4 1.1-5.2 2.1-6.4 2.1-3.1 0-5.8-3.6-5.8-8 0-11.2 17.5-16.3 31.3-9.2zm301.6 72.6c4.9 2 7.6 6 7.6 11.3 0 3.8-0.5 5-3.4 7.9-2.9 2.9-4.1 3.4-8.1 3.4-16.2 0-16.4-22-0.2-23.9 0.4-0.1 2.2 0.5 4.1 1.3zm-340.3 2.4c2.5 2.3 3.3 3.8 3.6 7.9 0.5 4.5 0.2 5.4-2.4 8.3-2.2 2.5-3.9 3.3-7.4 3.7-10.3 1.2-17-7.9-12.4-16.7 2.2-4.2 5.3-6 10.7-6 3.8 0 5.4 0.6 7.9 2.8zm410.8 19.9c3.1 2.6 6.1 20 6.4 36.8l0.2 13-9.1 0.3c-8 0.2-9.2 0.1-9.8-1.5-0.4-1-1.2-7.1-1.7-13.6-0.5-6.5-1.6-15.3-2.4-19.5-2.3-11.7-2.1-12.6 2.3-14.5 7.1-3.1 11.2-3.3 14.1-1zm-522.1 26.3c1.1 0 1.2 2.2 0.7 10.7-0.4 6-1.3 11.4-1.9 12.1-0.9 0.9-9.8 1.3-36.9 1.5-35.3 0.2-35.7 0.2-35.1-1.8 2.2-7.4 10-15.1 20-19.7 4.4-2.1 6.9-2.4 26.4-2.9 11.8-0.3 22.4-0.4 23.5-0.2 1.1 0.1 2.6 0.3 3.3 0.3zm605.4 3.7c3.7 1.7 8.6 5 11.1 7.2 4.2 3.9 8.6 11.5 7.4 12.7-1.1 1.1-71.1 0.4-72.2-0.7-1-1-2.4-19.8-1.6-22 0.2-0.7 8.3-0.9 24.5-0.7l24.1 0.3zm-504 5.5c4.9 1.5 12.3 7.8 14.8 12.9 3.2 6.2 2.8 6.9-3.9 6.9-7.5 0-10.2 2.1-8.5 6.4 0.5 1.3 2.2 1.6 7.6 1.6h7l-0.7 2.7c-2.3 9.7-14.1 18.3-25 18.3-5.9 0-12.8-3.1-17.5-8-4.2-4.3-7.6-11.1-6.2-12.4 0.3-0.3 3.1-0.6 6.3-0.6 4.9 0 5.9-0.3 6.4-2 0.3-1.1 0.3-2.9 0-4-0.5-1.7-1.5-2-7-2h-6.4l0.8-2.8c2.1-7.2 7.9-13.9 14.5-16.8 3.9-1.7 12.6-1.8 17.8-0.2zm364.8 0.9c5.5 2.5 9.6 6.2 12.1 11.1 3.9 7.7 2.1 9-11.3 8l-6.8-0.5v-4.1c0-5.4-1.1-6.8-4.6-6.4-2.7 0.3-2.9 0.6-3.2 5.5l-0.3 5.3h-19.8l1.4-4.5c1.9-6.5 5.6-10.9 11.7-13.9 6.5-3.3 14.3-3.5 20.8-0.5zm-13.6 29.1c0.3 1.3 0.6 3.5 0.6 5 0 2.4 0.4 2.8 2.9 2.8 3.2 0 4.1-1.4 4.1-6.7v-3.5l9.4 0.4c5.2 0.1 9.8 0.6 10.1 1 2.4 2.4-4.9 13.1-11.5 16.8-3.6 2-5.9 2.5-11.5 2.5-8.4-0.1-13.5-2.4-18.7-8.4-3.3-3.9-6.2-10.4-5-11.5 0.3-0.3 4.7-0.6 9.8-0.6 8.7 0 9.2 0.1 9.8 2.2zm-453.8 7.3c1.6 0.5 2.8 20.4 1.3 22.1-0.9 1.1-5.4 1.4-20.8 1.4-27.9 0-34.9-1.5-43.6-9.1-3.6-3.2-7.7-9.4-8.9-13.6l-0.7-2.2 35.8 0.5c19.7 0.3 36.3 0.7 36.9 0.9zm42.6 0.3c0.5 0.5 1.6 5.4 2.4 10.8 3.4 23.1 9.4 41.5 21.4 66 12.8 26 26.2 44.7 46.9 65.4 18.3 18.3 37.1 32 58.9 43 41.2 20.7 83.5 28.4 129.2 23.5 17.3-1.8 26.1-3.6 43.7-9.1 22.7-7 43-16.7 61.3-29.2 11.1-7.6 12.1-8.4 26.1-20.9 22.5-20.1 41.5-45.3 54.9-72.8 11.4-23.5 17.4-41.7 21-63.9 1.1-6.6 2.4-12.4 3-13 1.2-1.2 14.6-1.4 17.4-0.3 1.7 0.7 1.8 1.5 1.3 9-1.4 20.1-11.8 53.6-24.3 78.7-14 27.8-25.3 43.6-47.9 66.9-24.5 25.1-50.2 43-80.5 55.9-31.6 13.5-59.5 19.7-93.5 20.9-52.6 1.7-103-12.9-148.2-43.1-47-31.4-83.8-80.2-102.4-135.9-4.9-14.6-8.4-29.3-9.9-40.8-1.1-9.3-0.8-11.6 1.8-12.2 3-0.6 16.5 0.2 17.4 1.1zm582.6-0.4c0.9 0.9-5.3 10.9-8.7 13.8-8.9 7.8-20 10.1-47.1 9.6l-17.5-0.3-0.3-11.3c-0.3-10.9-0.2-11.3 2-12.1 2.3-0.8 70.7-0.5 71.6 0.3zm-370.3 11.6c6.6 6.7 6.9 7.1 5.5 9.3-5.6 8.7-6.4 14.8-2.9 22.2 3.4 7.3 8.2 10.6 33.4 22.7 13.9 6.7 17.7 10.1 20 18.2 4.3 14.7-5.1 31.4-20.4 36.2l-6.1 1.9v11.2c0 6.1-0.3 11.9-0.6 12.8-0.7 1.8-5.5 4.5-7.9 4.5-0.9 0-3-1.3-4.6-2.9-2.9-2.9-2.9-3.1-2.9-14.4v-11.5l-3.5-0.6c-4.6-0.9-18.1-7.9-22.5-11.6-4.3-3.7-3.8-4.7 4.8-10.8l6.2-4.4 3.9 3.1c6.1 4.8 11.9 7.1 18.4 7.1 9.8 0 16.2-5 16.2-12.5 0-6.7-3.9-10-22.9-19.4-18.7-9.3-25.9-14.9-30.3-23.9-2.6-5.2-2.8-6.7-2.8-16.7 0-10.2 0.2-11.4 2.9-16.5 2.6-5.1 7.2-11 8.6-11 0.3 0 3.7 3.2 7.5 7zm368.5 30c-13.2 93-61.3 173.2-137 228.3-44.8 32.6-96.9 54.2-154.4 64.1-19.4 3.4-19.1 3.4-15-0.9 1.8-2 4.3-6.2 5.5-9.5 1.9-5.3 2.5-6 5.3-6.5 13.4-2.2 17.7-3 30.1-6 47.3-11.4 92.4-33.5 131-64.2 13.1-10.4 38-34.9 49.2-48.6 9.4-11.4 23.7-32.2 31.2-45.4 17.5-30.9 31.5-71.9 36.5-106.5l1.1-8.1 7.4-3.8c4-2 8-4.4 8.9-5.3 0.9-0.8 1.7-1.4 1.9-1.3 0.1 0.2-0.6 6.3-1.7 13.7zm-689.1-9.6c2.8 1.9 6.7 4.1 8.6 4.8 2.2 0.7 3.7 2 4 3.3 0.2 1.1 1.5 8.3 2.9 16 6.5 35.9 19.9 71.8 38.3 103 34.4 58.2 91.1 106.9 157.6 135.4 22.1 9.5 57.4 19.6 75.4 21.7 6.9 0.7 7.5 1.2 9.3 6.7 0.6 2.1 2.7 5.8 4.6 8.3 1.9 2.4 3.4 4.6 3.4 4.7 0 0.5-4.4-0.1-19-2.4-52.3-8.4-105-30.3-149.2-62.1-25.3-18.1-41.2-32.3-59.3-53-43-49.2-67.4-101.8-80.1-172.7-2.3-13.2-2.8-17.1-2-17.1 0.2 0 2.7 1.5 5.5 3.4zm69.5 9.1c0.3 0.8 0.8 3.7 1.2 6.3 0.6 4.7 0.5 4.9-2.2 6-1.6 0.6-5.1 1.7-7.9 2.3-8.6 2-8.6 2.1-6.9 8.2 2.6 9.1 6.5 20.7 7 20.7 0.3 0 3.3-1.2 6.7-2.6 3.4-1.5 8.1-3.3 10.5-4l4.3-1.3 2.6 5.5c2.3 5.1 2.4 5.7 0.9 7.3-0.9 0.9-5.1 3.2-9.3 5.1-10.8 4.6-10.8 4.6-8.5 10.6 3 7.5 12 26.4 12.6 26.4 0.3 0 4.4-2.5 9.1-5.5 4.6-3 9.1-5.5 9.8-5.5 0.8 0 3 2.6 5 5.7l3.7 5.8-3.3 2.8c-1.7 1.6-5.8 4.6-8.9 6.8-3.2 2.2-5.8 4.6-5.8 5.3 0 1.2 8.9 14.8 11.4 17.4 1 1 3.1-0.2 10.6-6.3 5.2-4.1 9.9-7.4 10.5-7.2 0.5 0.2 2.9 2.7 5.3 5.6 5 6.2 5.1 5.9-5.4 15.2-3.8 3.3-7.3 6.7-7.7 7.5-0.7 1.3 10.8 15 20.7 24.4l3.7 3.5 7.6-8.3c4.1-4.5 8.3-8.7 9.3-9.2 1.4-0.7 2.7-0.1 6.4 3.1 2.5 2.2 4.6 4.4 4.6 4.9 0 0.4-3.1 5-7 10.2-3.8 5.1-7 9.6-7 10 0 0.9 15.6 12.8 16.7 12.8 0.4 0 3-3.1 5.6-6.9 2.7-3.8 6-8 7.5-9.4l2.7-2.6 5.3 3.2c6.3 3.9 6.3 4.1-1.2 16.3-3.9 6.3-5.2 9.2-4.5 10 1.1 1.3 17.1 10.6 17.4 10.2 0.1-0.2 2.7-4.9 5.9-10.5 3.1-5.6 6.1-10.5 6.5-10.8 0.5-0.2 3.4 0.7 6.5 2.1 6.5 3 6.4 2.3 1.1 14.4-4.6 10.4-5.1 12.6-2.8 13.5 5.9 2.3 20.6 7.5 20.8 7.3 0.1-0.2 1.6-4.6 3.4-9.8 4.3-13.1 4-12.7 9.8-11.2 8.4 2.3 8.5 2.9 4.9 16.7-1.8 6.8-2.1 9.3-1.3 10.2 1.6 1.6 21.8 6.6 22.7 5.6 0.4-0.4 1.3-4.6 1.9-9.3 2-14.7 1.7-14 6.4-14 7.1 0 7-0.6 6.6 22.3-0.2 11.3-0.7 20.9-1.2 21.3-1 1-14.9-1.2-29.2-4.6-54.1-13.2-106.1-42.2-146.7-81.8-26.9-26.2-45.1-50.8-60.1-80.7-6.4-13-15-35.1-19.1-49.3-4.2-14.6-9.1-39.3-8.3-41.6 0.6-1.4 3.2-1.6 19.6-1.6 15.8 0 19 0.2 19.5 1.5zm585.2 0c0.8 2.1-2.1 18.9-6 34-16.9 65.6-57.2 124.1-114.8 166.6-36.1 26.7-75.8 44.6-121.3 54.7-16.1 3.6-21.2 4.4-21.9 3.4-0.8-1.3-1-41.7-0.2-43 0.4-0.7 2.7-1.2 5.1-1.2 5 0 4.9-0.2 6.5 11 1.6 10.9 1.9 12 3.6 12 0.8 0 6.5-1.2 12.5-2.6 8.9-2.2 10.9-3 10.9-4.5 0-1-1.1-5.8-2.5-10.5-1.4-4.7-2.5-9.4-2.5-10.4 0-1.2 1.7-2.2 6-3.5 3.3-1 6.3-1.5 6.6-1.2 0.4 0.3 2.3 5.2 4.5 10.9 2.4 6.5 4.3 10.2 5.1 10 3.8-0.8 21.8-7.7 21.8-8.4 0-0.5-2-5.6-4.5-11.4-2.5-5.7-4.5-10.9-4.5-11.4 0-1 8.7-6 10.6-6 1.6 0 4.1 3.5 9 12.9 2.1 4 4.4 7.5 5 7.7 1.3 0.6 17.4-8.5 17.4-9.8 0-0.5-2.5-5.1-5.5-10.1-3-5-5.5-9.9-5.5-10.9 0-1.6 8-7.8 10.1-7.8 0.4 0 4 4.4 8 9.9l7.3 9.8 6.5-4.8c10.4-7.7 10.4-7.7 9.5-9.1-0.4-0.7-3.6-5-7.1-9.6-3.5-4.5-6.3-8.9-6.3-9.7 0-1.9 7-8.4 9.2-8.5 0.9 0 5.4 4.1 10 9l8.3 9.1 13.5-13.6 13.5-13.7-9.8-9.1c-5.3-5.1-9.7-9.7-9.7-10.2 0.1-1.5 8.5-10.5 9.8-10.5 0.6 0 4.9 3 9.4 6.7 4.6 3.6 8.8 7 9.5 7.5 0.8 0.7 3.1-1.6 7.7-7.9 6.9-9.2 7.5-10.7 5.1-11.6-1.9-0.8-17.4-12.1-17.5-12.7 0-1.5 7.3-12 8.4-12 0.7 0 5.4 2.5 10.5 5.6 5.1 3.1 9.6 5.2 10.1 4.8 1-1.1 10.8-22.6 12.6-27.7l1.4-3.8-5.5-2.5c-18.2-8.1-16.8-7.1-16-10.1 1.2-4.9 3.4-9.3 4.9-9.9 0.8-0.3 6 1.3 11.7 3.5 5.7 2.2 10.4 3.9 10.6 3.8 0.6-0.7 7-25.3 6.7-25.9-0.2-0.3-3.5-1.4-7.3-2.2-12.1-2.8-12.4-2.9-11.6-7.9 1.6-9.4 0-8.7 21.5-8.7 15.9 0 19.2 0.2 19.6 1.5zm-477.9 5.1c6.4 4 7.1 13.5 1.4 18.6-2.6 2.3-4.1 2.8-8.2 2.8-4.2 0-5.5-0.5-7.9-2.9-10.5-10.4 2.2-26.3 14.7-18.5zm345.9 1.8c2.8 2.8 3.4 4.2 3.4 7.6 0 7.7-4.3 12-12 12-7.6 0-13.4-8.2-11-15.5 1.7-5.1 5.3-7.5 11.2-7.5 4.3 0 5.4 0.4 8.4 3.4zm-192.7 120.3c1.1 1 2.4 3.2 2.7 5 1.3 6.6-7.3 10.8-12.3 6.1-3.1-2.9-3-7.2 0.2-10.3 2.8-2.9 6.4-3.2 9.4-0.8zm31.4-0.8c5.1 2 5.6 10.5 0.8 13-8 4.3-15.5-6.3-8.5-11.8 3-2.3 4.2-2.5 7.7-1.2zm-29.9 86.7c0.7 1.9 0.8 76.4 0.1 76.4-2 0-8.6-4.5-12.1-8.2-7.8-8-7.8-8.4-8.4-35.7-0.3-13.4-0.3-26.5-0.2-29.2l0.4-4.9h9.8c8 0 9.9 0.3 10.4 1.6zm42.2 0.8c0.3 1.3 0.4 14.3 0.2 28.8-0.4 28.4-0.7 30-6.4 36.7-3 3.6-9.8 8.5-13.1 9.5l-2.3 0.7v-37.1c0-23.7 0.4-37.8 1-39.1 0.9-1.7 2.2-1.9 10.5-1.9 9.2 0 9.5 0.1 10.1 2.4z"/>
	</g>
</svg>