<svg version="1.2" xmlns="http://www.w3.org/2000/svg" viewBox="0 0 79 84" width="79" height="84">
	<title>Imagen3-svg</title>
	<style>
		.s0 { fill: #ffffff }
	</style>
	<g id="Layer">
		<path id="Layer" fill-rule="evenodd" class="s0" d="m-97 1h79v84h-79zm109.3 9.6c27.5 6.3 49.7 26.1 58.8 52.7 1.5 4.5 3.1 10.7 3.5 13.7l0.7 5.5-2.4-1.6c-1.7-1.2-2.7-3.2-3.6-7.8-4.6-22.8-22-44.4-43.4-53.8-2.5-1.2-7.9-2.9-12-3.8-4.1-1-7.9-1.9-8.6-2.1-0.6-0.2-1.7-1.2-2.3-2.3-1.4-2.6-0.4-2.7 9.3-0.5zm7.3 10.3c14.5 5 27.4 15.3 36.3 29 4 6.2 9.3 19.4 10.5 26.3l0.7 3.8h-5.1c-3.8 0-5-0.4-5-1.5 0-0.8 0.9-1.5 2-1.5 1.3 0 2-0.7 2-1.9 0-3.7-1.2-5.1-4.1-5.1-3.4 0-4.1-2.9-0.8-3.7 1.2-0.4 1.8-1.1 1.5-2-0.3-0.8-0.6-1.9-0.6-2.5 0-0.6-1.1-0.7-2.7-0.4-3.6 1-5-1.3-2.2-3.5 2.1-1.5 2.1-1.7 0.4-4.3-1.6-2.4-1.9-2.5-3.5-1.1-1.5 1.4-1.8 1.4-3 0-1.1-1.3-1-1.9 0.5-3.5 1.7-1.9 1.7-2.2 0.3-3.6-1.3-1.3-1.9-1.4-3.6-0.3-1.7 1.1-2.4 1.1-3.4 0.1-0.9-0.9-0.8-1.6 0.5-3 1.6-1.8 1.6-2-0.3-3.7-1.9-1.7-2.1-1.7-4 0-2.7 2.5-4.8 0.7-2.9-2.4 1.2-1.8 1.1-2.2-0.6-3.5-1.8-1.4-2.2-1.3-3.7 0.7-2.3 2.9-4.6 1.1-2.8-2.2 1-1.9 0.7-2.3-2.5-3.7-3.8-1.6-5.5-1.2-5.5 1.2 0 0.9-0.7 1.4-1.7 1.2-1.3-0.3-1.7-1.2-1.5-3.1 0.1-1.5-0.1-2.7-0.5-2.7-0.4 0-1.8-0.3-2.9-0.6-1.6-0.4-2.3 0-2.7 1.5-0.3 1.2-1.2 2.1-2.1 2.1-1.2 0-1.6-1-1.6-4.5 0-4.4 0.1-4.5 3.3-4.5 1.7 0 6.9 1.3 11.3 2.9z"/>
	</g>
</svg>