<?xml version="1.0" standalone="no"?>
<!DOCTYPE svg PUBLIC "-//W3C//DTD SVG 20010904//EN"
 "http://www.w3.org/TR/2001/REC-SVG-20010904/DTD/svg10.dtd">
<svg version="1.0" xmlns="http://www.w3.org/2000/svg"
 width="512.000000pt" height="512.000000pt" viewBox="0 0 512.000000 512.000000"
 preserveAspectRatio="xMidYMid meet">

<g transform="translate(0.000000,512.000000) scale(0.100000,-0.100000)"
fill="#000000" stroke="none">
<path d="M3191 5103 c-11 -10 -58 -109 -105 -223 -70 -167 -88 -204 -103 -202
-10 2 -45 12 -78 22 -102 33 -235 58 -375 71 -503 46 -1040 -151 -1404 -517
-451 -452 -627 -1098 -467 -1719 123 -478 444 -886 886 -1124 44 -24 81 -45
83 -46 1 -1 -36 -93 -83 -205 -47 -112 -85 -213 -85 -225 0 -40 37 -75 79 -75
44 0 61 15 90 82 l20 47 87 -29 c87 -30 268 -73 357 -85 l47 -6 0 -185 0 -184
-255 0 c-273 0 -286 -2 -331 -52 -32 -34 -184 -343 -184 -373 0 -14 11 -37 25
-50 l24 -25 969 0 969 0 27 25 c15 14 26 35 26 50 0 28 -138 311 -177 364 -44
57 -65 61 -343 61 l-250 0 0 184 0 184 73 12 c442 73 830 264 1145 564 339
323 558 739 638 1210 22 128 29 417 15 546 -83 727 -495 1337 -1131 1673 -52
28 -96 51 -98 52 -1 1 7 27 19 58 18 48 20 61 10 85 -20 49 -81 66 -120 35z
m109 -368 c420 -212 769 -609 938 -1071 87 -236 117 -410 117 -674 0 -197 -12
-304 -51 -465 -176 -716 -727 -1271 -1439 -1449 -290 -72 -625 -76 -910 -11
-56 13 -230 64 -243 71 -3 2 58 154 65 163 1 2 42 -8 90 -22 188 -57 327 -77
524 -77 820 0 1533 557 1732 1355 40 160 51 249 51 430 1 284 -49 511 -168
766 -158 341 -455 652 -773 812 -39 20 -74 41 -77 46 -7 11 54 161 65 161 5 0
41 -16 79 -35z m-675 -136 c430 -64 818 -296 1075 -644 23 -31 40 -58 38 -60
-1 -1 -22 -12 -45 -24 -48 -24 -64 -48 -107 -158 -39 -98 -51 -105 -168 -96
-100 7 -156 -8 -201 -55 -35 -36 -75 -136 -83 -207 -6 -48 -11 -58 -35 -71
-44 -22 -175 -179 -211 -251 -42 -86 -50 -205 -20 -299 38 -121 130 -224 243
-272 52 -23 89 -63 89 -98 0 -13 -21 -83 -46 -156 -54 -156 -62 -229 -46 -434
9 -116 19 -157 50 -216 4 -9 -103 -59 -210 -99 -323 -120 -688 -132 -1018 -32
-291 88 -513 223 -722 441 -519 542 -594 1386 -179 2016 l46 71 6 -90 c3 -52
12 -103 22 -121 19 -36 74 -92 99 -100 10 -3 21 -17 24 -32 12 -58 38 -116 66
-148 17 -19 90 -70 163 -114 101 -61 135 -87 145 -110 7 -16 18 -34 26 -40 10
-10 4 -23 -35 -73 -59 -75 -111 -212 -111 -290 0 -63 20 -108 97 -223 33 -49
63 -97 66 -108 5 -11 -12 -78 -43 -173 -38 -115 -52 -176 -56 -236 -8 -114 9
-325 29 -364 49 -93 202 -100 256 -12 11 17 33 70 50 118 l32 88 57 13 c105
23 154 58 226 163 l39 57 66 -6 c79 -6 111 9 166 83 108 147 131 254 76 368
-35 74 -87 127 -147 150 -45 17 -46 19 -115 161 -104 217 -134 243 -378 330
-138 49 -145 53 -177 97 -18 25 -47 56 -63 68 -26 19 -28 25 -19 45 16 34 70
57 110 46 24 -6 34 -15 40 -38 22 -86 119 -90 161 -6 9 17 96 68 305 179 l293
155 46 -16 c62 -21 111 -20 149 3 48 29 86 85 91 134 4 37 0 50 -36 103 -40
61 -50 80 -32 70 5 -3 39 -6 75 -7 82 -2 106 16 129 98 14 49 14 59 2 83 -16
31 -25 35 -298 131 -164 57 -172 59 -273 59 -98 0 -104 1 -104 21 0 11 -4 28
-10 38 -12 24 -95 59 -162 69 l-53 8 85 12 c47 7 103 14 125 16 59 6 260 -3
340 -15z m-845 -150 c15 -29 33 -46 63 -60 55 -24 66 -24 137 6 67 28 146 34
137 11 -20 -51 -26 -96 -18 -119 20 -52 92 -64 131 -22 22 24 29 25 139 25 92
0 127 -4 171 -20 30 -12 62 -23 70 -26 12 -4 11 -8 -6 -22 -31 -24 -44 -55
-44 -103 0 -34 9 -54 48 -107 70 -97 69 -93 21 -77 -87 31 -98 27 -424 -145
-166 -88 -309 -160 -318 -160 -8 0 -30 6 -48 14 -105 44 -214 24 -290 -52 -25
-26 -48 -53 -51 -61 -3 -12 -12 -10 -44 8 -50 28 -63 48 -70 109 -9 78 -22 99
-72 122 -26 12 -53 29 -59 38 -9 11 -13 63 -13 178 l0 161 78 68 c99 85 221
167 341 228 52 26 96 47 98 47 1 0 12 -18 23 -41z m2149 -934 c29 -83 66 -234
58 -241 -2 -2 -81 30 -176 71 -95 41 -184 75 -198 75 -18 0 -48 -22 -103 -76
l-79 -76 -64 21 c-36 12 -68 29 -71 38 -8 20 20 107 40 124 10 8 37 10 93 5
170 -15 259 47 315 220 13 39 24 54 49 66 l32 16 38 -81 c21 -45 51 -117 66
-162z m-97 -354 l183 -79 3 -39 3 -38 -78 0 c-43 -1 -101 -5 -130 -9 -59 -10
-54 -14 -175 126 l-57 65 27 26 c15 15 30 27 34 27 4 0 90 -36 190 -79z m-490
-32 c103 -39 132 -60 214 -157 105 -124 183 -157 314 -132 53 10 74 10 104 0
l38 -12 -6 -47 c-53 -377 -223 -714 -494 -973 -75 -72 -197 -168 -213 -168
-19 0 -30 83 -32 237 l-2 168 48 134 c53 152 59 209 26 281 -28 63 -63 96
-140 135 -84 43 -123 76 -157 134 -23 40 -27 57 -27 126 0 99 18 136 113 235
80 83 90 85 214 39z m-1423 -60 c121 -46 142 -68 227 -245 77 -160 87 -172
177 -214 54 -25 87 -76 87 -132 0 -43 -84 -172 -107 -164 -88 34 -154 3 -233
-108 -62 -88 -74 -96 -180 -121 -44 -11 -83 -27 -96 -40 -11 -11 -34 -59 -50
-106 l-28 -84 -9 70 c-16 131 -4 215 53 384 70 206 68 221 -61 413 -33 48 -59
98 -59 111 0 51 44 153 93 215 58 73 51 73 186 21z m561 -2391 l0 -178 -90 0
-90 0 0 178 0 177 90 0 90 1 0 -178z m675 -428 l45 -90 -810 0 -810 0 45 90
45 90 720 0 720 0 45 -90z"/>
<path d="M3403 3857 c-53 -54 -63 -69 -63 -99 0 -44 34 -78 79 -78 27 0 44 11
97 64 73 74 83 108 39 151 -43 44 -79 35 -152 -38z"/>
</g>
</svg>
